<svg aria-hidden="true" focusable="false" role="presentation" viewBox="0 0 24 24" xmlns="http://www.w3.org/2000/svg">
  <path d="M12 3C9.356 3 9.059 3.01 8.128 3.053 7.199 3.095 6.565 3.242 6.01 3.458c-.574.223-1.06.52-1.546 1.006C3.98 4.949 3.681 5.436 3.458 6.01 3.242 6.565 3.094 7.199 3.053 8.127 3.01 9.058 3 9.355 3 11.725c0 2.37.01 2.666.053 3.597.042.929.19 1.563.405 2.118.223.574.521 1.06 1.006 1.545.485.485.972.784 1.545 1.007.555.216 1.19.363 2.118.405C9.059 20.44 9.356 20.45 12 20.45s2.941-.01 3.871-.053c.929-.042 1.563-.189 2.118-.405a4.29 4.29 0 0 0 1.545-1.007c.485-.485.783-.971 1.007-1.545.215-.555.362-1.189.404-2.118.043-.93.053-1.227.053-3.597s-.01-2.667-.053-3.597c-.042-.929-.189-1.563-.404-2.118a4.29 4.29 0 0 0-1.007-1.546A4.29 4.29 0 0 0 17.989 3.458c-.555-.216-1.189-.363-2.118-.405C14.941 3.01 14.644 3 12 3zm0 1.577c2.33 0 2.606.009 3.526.051.85.039 1.312.181 1.62.3.407.158.697.347 1.002.652.305.305.494.595.652 1.002.12.308.261.77.3 1.62.042.92.051 1.196.051 3.526s-.009 2.606-.051 3.526c-.039.85-.18 1.312-.3 1.62a2.703 2.703 0 0 1-.652 1.002 2.703 2.703 0 0 1-1.002.652c-.308.12-.77.261-1.62.3-.92.042-1.196.051-3.526.051s-2.606-.009-3.526-.051c-.85-.039-1.312-.18-1.62-.3a2.703 2.703 0 0 1-1.002-.652 2.703 2.703 0 0 1-.652-1.002c-.12-.308-.261-.77-.3-1.62C5.586 14.33 5.577 14.055 5.577 11.725s.009-2.606.051-3.526c.039-.85.18-1.312.3-1.62a2.703 2.703 0 0 1 .652-1.002 2.703 2.703 0 0 1 1.002-.652c.308-.12.77-.261 1.62-.3.92-.042 1.196-.051 3.526-.051zm0 2.671a4.477 4.477 0 1 0 0 8.955 4.477 4.477 0 0 0 0-8.955zm0 7.378a2.9 2.9 0 1 1 0-5.8 2.9 2.9 0 0 1 0 5.8zm5.7-7.56a1.046 1.046 0 1 0 0 2.093 1.046 1.046 0 0 0 0-2.092z" fill="currentColor"/>
</svg>
