<svg version="1.1" xmlns="http://www.w3.org/2000/svg" viewBox="76 125.911 459 459">
<path d="M194.375,553.286v-395.75c0-5.073-2.015-9.936-5.602-13.522c-3.587-3.589-8.451-5.603-13.523-5.603
	s-9.937,2.014-13.523,5.603c-3.587,3.587-5.602,8.449-5.602,13.522v395.75c0,5.072,2.015,9.937,5.602,13.522
	c3.586,3.587,8.451,5.603,13.523,5.603s9.937-2.016,13.523-5.603C192.36,563.223,194.375,558.358,194.375,553.286z"/>
<path d="M417.625,155.536v399.75c0,5.072,2.014,9.937,5.6,13.522c3.592,3.587,8.453,5.603,13.525,5.603
	c5.07,0,9.936-2.016,13.523-5.603c3.586-3.587,5.602-8.45,5.602-13.522v-399.75c0-5.073-2.016-9.936-5.602-13.522
	c-3.588-3.589-8.453-5.603-13.523-5.603c-5.072,0-9.936,2.014-13.525,5.603C419.638,145.601,417.625,150.463,417.625,155.536z"/>
<path d="M256.236,211.475l-67.463-67.463c-3.588-3.587-8.451-5.6-13.523-5.601c-5.074-0.001-9.938,2.015-13.523,5.601
	c-3.588,3.587-5.604,8.451-5.602,13.524c0,5.073,2.014,9.936,5.602,13.523l67.463,67.462c3.586,3.586,8.45,5.603,13.522,5.603
	s9.937-2.015,13.523-5.603c3.586-3.586,5.602-8.451,5.602-13.522C261.837,219.927,259.822,215.062,256.236,211.475z"/>
<path d="M450.273,541.763l-67.463-67.462c-3.588-3.588-8.451-5.601-13.523-5.602c-5.074-0.001-9.938,2.015-13.523,5.602
	c-3.588,3.586-5.604,8.45-5.602,13.523c0,5.073,2.014,9.936,5.602,13.522l67.463,67.462c3.586,3.587,8.451,5.604,13.523,5.603
	c5.072,0.001,9.936-2.014,13.523-5.603c3.586-3.586,5.602-8.449,5.602-13.522C455.875,550.215,453.859,545.35,450.273,541.763z"/>
<path d="M121.311,238.521l67.462-67.462c3.588-3.588,5.6-8.451,5.602-13.523c0-5.074-2.016-9.938-5.602-13.523
	c-3.586-3.588-8.451-5.604-13.523-5.602c-5.074,0-9.936,2.014-13.523,5.602l-67.462,67.463c-3.587,3.586-5.603,8.45-5.602,13.523
	c-0.001,5.071,2.014,9.937,5.602,13.522c3.586,3.586,8.45,5.602,13.523,5.603C112.859,244.123,117.724,242.107,121.311,238.521z"/>
<path d="M450.273,568.811l67.463-67.463c3.588-3.588,5.6-8.45,5.602-13.522c0-5.074-2.016-9.938-5.602-13.523
	c-3.586-3.588-8.451-5.604-13.523-5.602c-5.074,0-9.936,2.014-13.521,5.602l-67.465,67.463c-3.586,3.586-5.602,8.45-5.602,13.523
	c0,5.071,2.014,9.936,5.602,13.522c3.586,3.587,8.451,5.602,13.523,5.603C441.822,574.411,446.687,572.396,450.273,568.811z"/>
</svg>