<svg aria-hidden="true" focusable="false" role="presentation" viewBox="0 0 24 24" xmlns="http://www.w3.org/2000/svg">
  <path d="M12.186 4h-.007C8.333 4 6 6.396 6 10.187v3.626C6 17.604 8.333 20 12.179 20h.007c1.712 0 3.216-.57 4.298-1.602.986-.948 1.516-2.218 1.516-3.67 0-2.858-1.977-4.608-5.15-4.608-1.336 0-2.454.465-3.107 1.275v-.048c0-2.22 1.097-3.352 3.259-3.352.9 0 1.67.235 2.237.68.387.302.647.694.76 1.134l1.88-.513C17.44 7.553 16.1 6 12.186 6zm.619 8.16c1.558 0 2.5.923 2.5 2.41 0 1.47-.958 2.34-2.5 2.34-1.09 0-1.89-.409-2.317-1.136H8.625C9.018 17.477 10.673 19 12.805 19c2.413 0 4-1.537 4-3.84 0-1.276-.48-2.348-1.35-3.07.514.48 1 1.593 1 2.91h-1.913c-.051-.74-.454-1.3-1.089-1.629-.476-.244-1.065-.371-1.705-.371-1.836 0-3.08.978-3.277 2.758l-.002.242h1.5c0-.702.78-1.25 2-1.25z" fill="currentColor"/>
</svg>
