<svg version="1.1" xmlns="http://www.w3.org/2000/svg" xmlns:xlink="http://www.w3.org/1999/xlink" viewBox="76.5 204.511 459 382.801">
<path d="M95.625,276.286h78.891c4.213,16.455,13.783,31.041,27.202,41.456c13.418,10.416,29.921,16.069,46.908,16.069
	s33.49-5.653,46.908-16.069c13.417-10.416,22.989-25.001,27.203-41.456h193.64c5.073,0,9.936-2.015,13.522-5.602
	c3.589-3.587,5.603-8.451,5.603-13.523s-2.014-9.937-5.603-13.523c-3.587-3.587-8.449-5.602-13.522-5.602h-193.64
	c-4.214-16.456-13.785-31.041-27.203-41.457c-13.418-10.415-29.921-16.069-46.908-16.069s-33.49,5.654-46.908,16.069
	c-13.418,10.416-22.988,25.001-27.202,41.457H95.625c-5.072,0-9.937,2.015-13.523,5.602c-3.586,3.586-5.602,8.451-5.602,13.523
	s2.015,9.937,5.602,13.523C85.688,274.271,90.553,276.286,95.625,276.286z M248.625,218.911c7.565,0,14.96,2.243,21.25,6.446
	c6.29,4.203,11.193,10.177,14.088,17.166s3.652,14.68,2.177,22.1c-1.476,7.42-5.119,14.235-10.468,19.584
	c-5.349,5.35-12.165,8.993-19.585,10.468c-7.419,1.476-15.11,0.719-22.1-2.176s-12.963-7.798-17.166-14.088
	c-4.203-6.291-6.446-13.686-6.446-21.25c0-10.145,4.03-19.874,11.203-27.047C228.751,222.941,238.48,218.911,248.625,218.911z"/>
<path d="M516.375,511.536h-40.64c-4.214-16.457-13.785-31.04-27.204-41.457c-13.418-10.416-29.92-16.067-46.906-16.067
	s-33.488,5.651-46.906,16.067c-13.419,10.417-22.99,25-27.204,41.457H95.625c-5.072,0-9.937,2.014-13.523,5.6
	c-3.586,3.59-5.602,8.452-5.602,13.525c0,5.07,2.015,9.936,5.602,13.522c3.587,3.586,8.451,5.603,13.523,5.603h231.89
	c4.214,16.454,13.785,31.041,27.204,41.457c13.418,10.413,29.92,16.068,46.906,16.068s33.488-5.655,46.906-16.068
	c13.419-10.416,22.99-25.003,27.204-41.457h40.64c5.073,0,9.936-2.017,13.522-5.603c3.589-3.587,5.603-8.452,5.603-13.522
	c0-5.073-2.014-9.936-5.603-13.525C526.311,513.55,521.448,511.536,516.375,511.536z M401.625,568.911
	c-7.564,0-14.96-2.243-21.252-6.447c-6.288-4.201-11.19-10.175-14.088-17.167c-2.895-6.988-3.65-14.679-2.176-22.099
	c1.475-7.421,5.119-14.235,10.469-19.584c5.349-5.35,12.166-8.994,19.584-10.469c7.42-1.475,15.109-0.719,22.102,2.176
	c6.989,2.895,12.963,7.8,17.164,14.088c4.204,6.292,6.447,13.688,6.447,21.252c0,10.145-4.03,19.875-11.203,27.048
	C421.5,564.881,411.769,568.911,401.625,568.911z"/>
</svg>