<svg aria-hidden="true" focusable="false" role="presentation" viewBox="0 0 24 24" xmlns="http://www.w3.org/2000/svg">
  <path d="M12 3c-4.971 0-9 4.029-9 9 0 3.773 2.26 7.02 5.51 8.484-.076-.661-.144-1.675.03-2.396.156-.652.988-4.019.988-4.019s-.252-.504-.252-1.25c0-1.171.68-2.047 1.524-2.047.719 0 1.068.54 1.068 1.188 0 .724-.462 1.808-.701 2.813-.2.842.419 1.529 1.243 1.529 1.492 0 2.638-1.572 2.638-3.842 0-2.01-1.445-3.414-3.507-3.414-2.388 0-3.79 1.791-3.79 3.64 0 .72.277 1.493.622 1.915.068.083.078.156.058.24-.063.263-.204.842-.232.96-.037.155-.124.188-.285.113-1.063-.495-1.727-2.05-1.727-3.3 0-2.686 1.951-5.152 5.628-5.152 2.954 0 5.248 2.104 5.248 4.914 0 2.931-1.847 5.289-4.411 5.289-.862 0-1.673-.448-1.95-.976l-.53 1.978c-.192.737-.709 1.66-1.056 2.22A9 9 0 0 0 21 12c0-4.971-4.029-9-9-9z" fill="currentColor"/>
</svg>
