<svg aria-hidden="true" focusable="false" role="presentation" viewBox="0 0 24 24" xmlns="http://www.w3.org/2000/svg">
  <path d="M19.99 8.187c.108-2.075-.677-3.148-2.323-3.184-2.217-.07-3.72 1.182-4.507 3.757 1.002-.43 2.432-.537 2.289 1.108-.071.537-.43 1.36-1.109 2.397-1.86 2.97-2.325 1.968-3.327-4.507-.286-1.824-1.073-2.683-2.325-2.576-1.109.107-2.862 1.896-4.688 3.541l.752.966c.715-.501 1.109-.751 1.252-.751 1.037 0 1.573 2.683 2.825 7.333.644 1.717 1.431 2.576 2.361 2.576 1.538 0 3.363-1.43 5.545-4.256 2.11-2.719 3.184-4.829 3.255-6.404z" fill="currentColor"/>
</svg>
