<svg aria-hidden="true" focusable="false" role="presentation" viewBox="0 0 24 24" xmlns="http://www.w3.org/2000/svg">
  <path fill-rule="evenodd" clip-rule="evenodd" d="M19.821 5.428c.857.23 1.532.906 1.763 1.763C22.012 8.755 22 12.017 22 12.017s.012 3.244-.416 4.809a2.493 2.493 0 0 1-1.763 1.763C18.256 19 12 19 12 19s-6.245 0-7.826-.411a2.493 2.493 0 0 1-1.763-1.763C2 15.261 2 12 2 12s0-3.245.411-4.81a2.493 2.493 0 0 1 1.763-1.762C5.739 5 12 5 12 5s6.257 0 7.821.428zM15.209 12L10 14.883V9.117L15.209 12z" fill="currentColor"/>
</svg>
