<svg aria-hidden="true" focusable="false" role="presentation" viewBox="0 0 24 24" xmlns="http://www.w3.org/2000/svg">
  <path d="M14.141 17.838c-.798.205-1.77-.502-2.641-.502s-1.839.707-2.641.502c-.83-.213-1.23-1.507-1.963-1.91-.745-.41-2.218-.139-2.833-.716 0 0 3.719-1.328 3.719-6.912a3.719 3.719 0 0 1 7.438 0c0 5.571 3.719 6.912 3.719 6.912-.615.577-2.088.306-2.833.716-.733.403-1.133 1.697-1.963 1.91zm-6.738-6.701L5.656 10.438m9.941.699 1.747-.699" stroke="currentColor" stroke-width="1.5" stroke-linecap="round" stroke-linejoin="round"/>
</svg>
